<svg id="Layer_35" enable-background="new 0 0 64 64" height="256" viewBox="0 0 64 64" width="256" xmlns="http://www.w3.org/2000/svg"><g fill="#838f9b"><path d="m19 39v20c0 1.66-1.34 3-3 3-.83 0-1.58-.34-2.12-.88s-.88-1.29-.88-2.12v-20z"/><path d="m13 39v20c0 1.66-1.34 3-3 3-.83 0-1.58-.34-2.12-.88s-.88-1.29-.88-2.12v-17-3z"/><path d="m57 42v17c0 .83-.34 1.58-.88 2.12s-1.29.88-2.12.88c-1.66 0-3-1.34-3-3v-20h6z"/><path d="m51 39v20c0 .83-.34 1.58-.88 2.12s-1.29.88-2.12.88c-1.66 0-3-1.34-3-3v-20z"/></g><path d="m57 39h-6-6v-8c0-1.1-.9-2-2-2h-11-1.5c-.69 0-1.32-.28-1.77-.73s-.73-1.08-.73-1.77c0-1.38 1.12-2.5 2.5-2.5h1.5 16c0 2.21 1.34 4 3 4s3-1.79 3-4c4.42 0 8 3.58 8 8v6c0 2.21-1.79 4-4 4h-1z" fill="#fcd770"/><path d="m28 26.5c0 .69.28 1.32.73 1.77s1.08.73 1.77.73h-9.5c-1.1 0-2 .9-2 2v8h-6-6v3h-1c-2.21 0-4-1.79-4-4v-6c0-4.42 3.58-8 8-8h1.62l-.62 7 2 2 2-2-.63-7h16.13c-1.38 0-2.5 1.12-2.5 2.5z" fill="#ff826e"/><path d="m13 24h1.37l.63 7-2 2-2-2 .62-7z" fill="#e6e9ed"/><path d="m17.47 14c.95 1.06 1.53 2.46 1.53 4 0 3.31-2.69 6-6 6s-6-2.69-6-6c0-.19.01-.39.03-.57.13-1.42.75-2.69 1.7-3.64 1.09-1.11 2.6-1.79 4.27-1.79 1.77 0 3.37.77 4.47 2z" fill="#f0d0b4"/><path d="m51 24h3c0 2.21-1.34 4-3 4s-3-1.79-3-4z" fill="#f0d0b4"/><path d="m56.97 17.43c.02.18.03.38.03.57 0 3.31-2.69 6-6 6s-6-2.69-6-6c0-1.54.58-2.94 1.53-4 1.1-1.23 2.7-2 4.47-2 1.67 0 3.19.69 4.27 1.8.95.95 1.57 2.21 1.7 3.63z" fill="#f0d0b4"/><path d="m29.74 8h-4.29c-.7-1.19-1.97-2-3.45-2h-12c-2.21 0-4 1.79-4 4 0 1.77 1.14 3.26 2.73 3.79-.95.95-1.57 2.22-1.7 3.64-2.95-1.18-5.03-4.06-5.03-7.43 0-4.42 3.58-8 8-8h12c3.73 0 6.85 2.55 7.74 6z" fill="#ccd1d9"/><path d="m25.45 12h4.29c-.89 3.45-4.01 6-7.74 6h-3c0-1.54-.58-2.94-1.53-4h4.53c1.48 0 2.75-.81 3.45-2z" fill="#ccd1d9"/><path d="m42 14h4.53c-.95 1.06-1.53 2.46-1.53 4h-3c-3.73 0-6.85-2.55-7.74-6h4.29c.7 1.19 1.97 2 3.45 2z" fill="#ccd1d9"/><path d="m62 10c0 3.37-2.08 6.25-5.03 7.43-.13-1.42-.75-2.68-1.7-3.63l.01-.01c1.58-.53 2.72-2.03 2.72-3.79 0-2.21-1.79-4-4-4h-12c-1.48 0-2.75.81-3.45 2h-4.29c.89-3.45 4.01-6 7.74-6h12c4.42 0 8 3.58 8 8z" fill="#ccd1d9"/><path d="m42 8c1.1 0 2 .9 2 2 0 .55-.22 1.05-.59 1.41-.36.37-.86.59-1.41.59h-3.45-4.29-4.52-4.29-3.45c-1.1 0-2-.9-2-2 0-.55.22-1.05.59-1.41.36-.37.86-.59 1.41-.59h3.45 4.29 4.52 4.29z" fill="#969faa"/><path d="m55.706 23.167c1.397-1.273 2.281-3.098 2.292-5.13 3.052-1.514 5.002-4.582 5.002-8.037 0-4.962-4.038-9-9-9h-12c-3.838 0-7.219 2.431-8.477 6h-3.047c-1.257-3.569-4.638-6-8.476-6h-12c-4.962 0-9 4.038-9 9 0 3.456 1.949 6.523 5.002 8.038.011 2.032.896 3.856 2.292 5.129-4.149.8-7.294 4.454-7.294 8.833v6c0 2.757 2.243 5 5 5v16c0 2.206 1.794 4 4 4 1.2 0 2.266-.542 3-1.382.734.84 1.8 1.382 3 1.382 2.206 0 4-1.794 4-4v-28c0-.551.449-1 1-1h9.5 1.5 11c.551 0 1 .449 1 1v28c0 2.206 1.794 4 4 4 1.2 0 2.266-.542 3-1.382.734.84 1.8 1.382 3 1.382 2.206 0 4-1.794 4-4v-16c2.757 0 5-2.243 5-5v-6c0-4.379-3.145-8.033-7.294-8.833zm-37.816-.167c1.074-1.051 1.806-2.443 2.031-4h2.079c3.838 0 7.219-2.431 8.477-6h3.047c1.258 3.569 4.639 6 8.477 6h2.08c.224 1.557.956 2.949 2.031 4h-14.112-1.5zm-3.928 7.624-.962.962-.962-.962.502-5.624h.921zm-5.427-18.01c-.934-.523-1.535-1.512-1.535-2.614 0-1.654 1.346-3 3-3h12c-1.654 0-3 1.346-3 3s1.346 3 3 3h-4.11c-1.263-1.235-2.988-2-4.89-2-1.696 0-3.252.607-4.465 1.614zm46.93 0c-1.213-1.007-2.769-1.614-4.465-1.614-1.902 0-3.627.765-4.89 2h-4.11c1.654 0 3-1.346 3-3s-1.346-3-3-3h12c1.654 0 3 1.346 3 3 0 1.101-.601 2.09-1.535 2.614zm-11.385 4.386h-2.08c-2.737 0-5.165-1.596-6.306-4h2.331c.939 1.245 2.412 2 3.975 2h2.685c-.297.622-.503 1.294-.605 2zm-2.08-8c.551 0 1 .449 1 1s-.449 1-1 1h-20c-.551 0-1-.449-1-1s.449-1 1-1zm-20 6c1.563 0 3.035-.755 3.975-2h2.331c-1.14 2.404-3.569 4-6.306 4h-2.08c-.102-.706-.308-1.378-.605-2zm30.873 10c-.282 1.15-1.022 2-1.873 2s-1.59-.85-1.873-2zm-1.873-2c-2.757 0-5-2.243-5-5s2.243-5 5-5 5 2.243 5 5-2.243 5-5 5zm-9-20h12c3.86 0 7 3.14 7 7 0 2.464-1.271 4.68-3.31 5.941-.202-.654-.497-1.267-.87-1.824 1.337-.916 2.18-2.437 2.18-4.117 0-2.757-2.243-5-5-5h-12c-1.563 0-3.035.755-3.975 2h-2.331c1.141-2.404 3.569-4 6.306-4zm-39 7c0-3.86 3.14-7 7-7h12c2.737 0 5.165 1.596 6.306 4h-2.331c-.94-1.245-2.412-2-3.975-2h-12c-2.757 0-5 2.243-5 5 0 1.681.842 3.202 2.18 4.117-.373.557-.668 1.169-.87 1.823-2.039-1.261-3.31-3.476-3.31-5.94zm5 8c0-2.757 2.243-5 5-5s5 2.243 5 5-2.243 5-5 5-5-2.243-5-5zm2 43c-1.103 0-2-.897-2-2v-19h4v19c0 1.103-.897 2-2 2zm6 0c-1.103 0-2-.897-2-2v-19h4v19c0 1.103-.897 2-2 2zm2-30v7h-10v-9h-2v12c-1.654 0-3-1.346-3-3v-6c0-3.86 3.14-7 7-7h.532l-.569 6.376 3.037 3.038 3.038-3.038-.57-6.376h11.883c-.218.456-.351.961-.351 1.5s.133 1.044.351 1.5h-6.351c-1.654 0-3 1.346-3 3zm30 30c-1.103 0-2-.897-2-2v-19h4v19c0 1.103-.897 2-2 2zm6 0c-1.103 0-2-.897-2-2v-19h4v19c0 1.103-.897 2-2 2zm7-23c0 1.654-1.346 3-3 3v-12h-2v9h-10v-7c0-1.654-1.346-3-3-3h-11-1.5c-.827 0-1.5-.673-1.5-1.5s.673-1.5 1.5-1.5h1.5 15.081c.372 2.279 1.987 4 3.919 4 1.913 0 3.512-1.689 3.904-3.935 3.433.446 6.096 3.382 6.096 6.935z"/></svg>